<?xml version="1.0" encoding="UTF-8" standalone="no"?>
<!-- Created with Inkscape (http://www.inkscape.org/) -->

<svg
   width="128"
   height="128"
   viewBox="0 0 33.866666 33.866666"
   version="1.1"
   id="svg1"
   inkscape:version="1.4 (86a8ad7, 2024-10-11)"
   sodipodi:docname="WE_ConstructionVehicle.svg"
   xmlns:inkscape="http://www.inkscape.org/namespaces/inkscape"
   xmlns:sodipodi="http://sodipodi.sourceforge.net/DTD/sodipodi-0.dtd"
   xmlns="http://www.w3.org/2000/svg"
   xmlns:svg="http://www.w3.org/2000/svg">
  <sodipodi:namedview
     id="namedview1"
     pagecolor="#505050"
     bordercolor="#eeeeee"
     borderopacity="1"
     inkscape:showpageshadow="0"
     inkscape:pageopacity="0"
     inkscape:pagecheckerboard="true"
     inkscape:deskcolor="#505050"
     inkscape:document-units="mm"
     showgrid="true"
     inkscape:zoom="1.4142136"
     inkscape:cx="124.45079"
     inkscape:cy="30.052038"
     inkscape:window-width="1920"
     inkscape:window-height="1017"
     inkscape:window-x="1912"
     inkscape:window-y="-8"
     inkscape:window-maximized="1"
     inkscape:current-layer="layer2">
    <inkscape:grid
       id="grid1"
       units="px"
       originx="0"
       originy="0"
       spacingx="0.52916664"
       spacingy="0.52916664"
       empcolor="#0099e5"
       empopacity="0.30196078"
       color="#0099e5"
       opacity="0.14901961"
       empspacing="4"
       enabled="true"
       visible="true" />
  </sodipodi:namedview>
  <defs
     id="defs1" />
  <g
     inkscape:label="base"
     inkscape:groupmode="layer"
     id="layer1">
    <path
       id="rect1"
       style="opacity:1;fill:#000000;stroke-width:9.65166"
       d="M 11.973675 -11.973675 L 11.973675 11.973675 L 35.921024 11.973675 L 35.921024 -11.973675 L 11.973675 -11.973675 z M 12.72203 -11.22532 L 35.17267 -11.22532 L 35.17267 11.22532 L 12.72203 11.22532 L 12.72203 -11.22532 z "
       transform="rotate(45)"
       inkscape:label="outline" />
    <rect
       style="fill:#0058a0;fill-opacity:0.40000001;stroke-width:9.04843"
       id="rect1-2"
       width="22.45064"
       height="22.45064"
       x="12.722031"
       y="-11.22532"
       transform="rotate(45)"
       inkscape:label="infill" />
  </g>
  <g
     inkscape:groupmode="layer"
     id="layer2"
     inkscape:label="symbol">
    <g
       id="g10"
       inkscape:label="CV"
       transform="translate(-38.099996,19.049999)">
      <path
         style="fill:#000000;stroke-width:12.93"
         d="m 46.566668,-8.4666664 v 7.4083331 h 2.116666 v -5.2916666 h 5.291668 v 5.2916666 h 2.11666 v -5.2916666 h 5.291666 v 5.2916666 h 2.116668 v -7.4083331 z"
         id="path2-8" />
      <g
         id="g9">
        <path
           id="rect3"
           style="fill:#000000;stroke-width:15.8359"
           d="m 48.683333,0 a 2.1166657,2.1166657 0 0 0 -2.116666,2.1166667 2.1166657,2.1166657 0 0 0 2.116666,2.1166666 h 12.7 A 2.1166657,2.1166657 0 0 0 63.5,2.1166667 2.1166657,2.1166657 0 0 0 61.383333,0 Z m 0,0.52916667 h 12.7 a 1.5875,1.5875 0 0 1 1.5875,1.58750003 1.5875,1.5875 0 0 1 -1.5875,1.5875 h -12.7 a 1.5875,1.5875 0 0 1 -1.5875,-1.5875 1.5875,1.5875 0 0 1 1.5875,-1.58750003 z" />
        <circle
           style="fill:#000000;stroke-width:6.46499"
           id="path5"
           cx="48.683334"
           cy="2.1166666"
           r="1.0583333" />
        <circle
           style="fill:#000000;stroke-width:6.46499"
           id="path6"
           cx="61.383331"
           cy="2.1166666"
           r="1.0583333" />
        <circle
           style="fill:#000000;stroke-width:6.46499"
           id="path7"
           cx="58.208332"
           cy="2.1166666"
           r="1.0583333" />
        <circle
           style="fill:#000000;stroke-width:6.46499"
           id="path8"
           cx="51.85833"
           cy="2.1166666"
           r="1.0583333" />
        <circle
           style="fill:#000000;stroke-width:6.46499"
           id="path9"
           cx="55.033333"
           cy="2.1166666"
           r="1.0583333" />
      </g>
    </g>
  </g>
</svg>
